HIERARCHY
ROOT joint_0
{
	OFFSET 0.000000 0.000000 0.000000
	CHANNELS 6 Xposition Yposition Zposition Zrotation Yrotation Xrotation 
	JOINT joint_1
	{
		OFFSET 14.113007 -2.961990 123.953979
		CHANNELS 3 Zrotation Yrotation Xrotation
		JOINT joint_2
		{
			OFFSET 0.764000 -2.434006 113.871948
			CHANNELS 3 Zrotation Yrotation Xrotation
			JOINT joint_3
			{
				OFFSET 0.186996 -2.169998 113.753052
				CHANNELS 3 Zrotation Yrotation Xrotation
				JOINT joint_4
				{
					OFFSET 16.096001 -2.720001 160.853027
					CHANNELS 3 Zrotation Yrotation Xrotation
					JOINT joint_5
					{
						OFFSET 34.392006 -0.188995 92.567017
						CHANNELS 3 Zrotation Yrotation Xrotation
						End Site
						{
							OFFSET 0.000000 0.000000 0.000000
						}
					}
				}
				JOINT joint_6
				{
					OFFSET 9.183998 -36.684006 89.597046
					CHANNELS 3 Zrotation Yrotation Xrotation
					JOINT joint_7
					{
						OFFSET 0.486000 -164.365997 -28.984009
						CHANNELS 3 Zrotation Yrotation Xrotation
						JOINT joint_8
						{
							OFFSET 38.899002 -34.967010 -291.651978
							CHANNELS 3 Zrotation Yrotation Xrotation
							JOINT joint_9
							{
								OFFSET 41.714005 -45.890991 -258.857056
								CHANNELS 3 Zrotation Yrotation Xrotation
								End Site
								{
									OFFSET 0.000000 0.000000 0.000000
								}
							}
						}
					}
				}
				JOINT joint_10
				{
					OFFSET 8.867004 33.650002 90.817993
					CHANNELS 3 Zrotation Yrotation Xrotation
					JOINT joint_11
					{
						OFFSET 0.018997 164.299999 -29.368042
						CHANNELS 3 Zrotation Yrotation Xrotation
						JOINT joint_12
						{
							OFFSET 29.440994 30.887997 -293.216919
							CHANNELS 3 Zrotation Yrotation Xrotation
							JOINT joint_13
							{
								OFFSET 46.174011 54.490005 -256.422058
								CHANNELS 3 Zrotation Yrotation Xrotation
								End Site
								{
									OFFSET 0.000000 0.000000 0.000000
								}
							}
						}
					}
				}
			}
		}
	}
	JOINT joint_14
	{
		OFFSET -2.264000 -89.466995 -116.150024
		CHANNELS 3 Zrotation Yrotation Xrotation
		JOINT joint_15
		{
			OFFSET -16.400993 -17.452988 -493.781982
			CHANNELS 3 Zrotation Yrotation Xrotation
			JOINT joint_16
			{
				OFFSET -50.497004 -13.404022 -424.754013
				CHANNELS 3 Zrotation Yrotation Xrotation
				JOINT joint_17
				{
					OFFSET 198.546007 -19.341003 -89.309000
					CHANNELS 3 Zrotation Yrotation Xrotation
					End Site
					{
						OFFSET 0.000000 0.000000 0.000000
					}
				}
			}
		}
	}
	JOINT joint_18
	{
		OFFSET -0.867996 96.016006 -110.817993
		CHANNELS 3 Zrotation Yrotation Xrotation
		JOINT joint_19
		{
			OFFSET -10.130997 24.658998 -493.645020
			CHANNELS 3 Zrotation Yrotation Xrotation
			JOINT joint_20
			{
				OFFSET -48.871004 19.434999 -424.714005
				CHANNELS 3 Zrotation Yrotation Xrotation
				JOINT joint_21
				{
					OFFSET 195.579996 24.926001 -94.327003
					CHANNELS 3 Zrotation Yrotation Xrotation
					End Site
					{
						OFFSET 0.000000 0.000000 0.000000
					}
				}
			}
		}
	}
}
MOTION
Frames: 11
Frame Time: 0.016667
-2613.524414 878.353394 1121.891968 13.443344 -3.290209 1.311903 -2.017756 6.052076 7.875567 -1.585319 -0.896392 -1.611190 -1.521810 1.125783 1.259633 -1.199044 -1.596051 2.876135 0.000000 0.000000 0.000000 1.166686 -11.876724 -0.228145 -4.496122 -6.634934 -13.274734 10.806115 -85.286361 24.423797 0.000000 0.000000 0.000000 -0.220193 -10.051766 1.396428 -0.123426 -6.819491 14.525543 -10.816421 -69.356953 -8.956666 0.000000 0.000000 0.000000 4.764176 -16.066547 -5.924580 4.754430 14.614592 3.971993 7.063222 1.423375 3.107722 0.000000 0.000000 0.000000 -8.349975 -8.403837 4.218502 -5.642206 40.505527 -10.013707 -9.046000 -3.705259 -3.230647 0.000000 0.000000 0.000000 
-2609.815674 875.504822 1123.359009 13.914912 -3.256126 1.366173 -2.066732 5.901344 7.712140 -1.556842 -0.853842 -1.547200 -1.485918 1.077219 1.214682 -1.128637 -1.479685 2.714516 0.000000 0.000000 0.000000 1.171174 -11.831253 -0.223435 -4.257370 -6.464080 -12.881605 10.869119 -85.653743 23.952531 0.000000 0.000000 0.000000 -0.254309 -10.259848 1.376353 -0.328408 -7.061460 14.555873 -11.006851 -68.895348 -7.959860 0.000000 0.000000 0.000000 4.697397 -15.745732 -5.732879 4.577031 14.427529 3.742211 6.803296 1.326948 2.991931 0.000000 0.000000 0.000000 -8.626634 -9.034927 4.422536 -5.889047 41.372016 -10.294186 -9.349143 -1.982566 -3.551580 0.000000 0.000000 0.000000 
-2606.380127 872.944092 1124.840942 14.343608 -3.248498 1.412664 -2.081411 5.753765 7.528080 -1.517883 -0.817454 -1.490008 -1.442117 1.031910 1.169554 -1.069372 -1.379995 2.580938 0.000000 0.000000 0.000000 1.197650 -11.752088 -0.255692 -4.178055 -6.289626 -12.509006 10.818925 -85.949699 23.909413 0.000000 0.000000 0.000000 -0.297289 -10.493520 1.364462 -0.508204 -7.310599 14.689410 -11.185138 -68.370948 -7.129282 0.000000 0.000000 0.000000 4.632849 -15.398188 -5.558772 4.424464 14.193652 3.542406 6.566180 1.272755 2.890009 0.000000 0.000000 0.000000 -8.855516 -9.503207 4.570587 -6.106620 41.945716 -10.491840 -9.608710 -0.908700 -3.781425 0.000000 0.000000 0.000000 
-2603.178711 870.702576 1126.328003 14.664232 -3.288122 1.434967 -2.042313 5.651194 7.344950 -1.444524 -0.793665 -1.451590 -1.365617 0.997198 1.136022 -1.040599 -1.292613 2.522609 0.000000 0.000000 0.000000 1.244177 -11.666616 -0.325244 -4.357788 -6.143763 -12.186278 10.600966 -86.095001 24.566958 0.000000 0.000000 0.000000 -0.356326 -10.754310 1.334149 -0.648252 -7.567099 14.970879 -11.346002 -67.804196 -6.550701 0.000000 0.000000 0.000000 4.592590 -15.017797 -5.400018 4.311268 13.926817 3.421227 6.376214 1.276280 2.813413 0.000000 0.000000 0.000000 -8.991927 -9.754266 4.679479 -6.246951 42.284188 -10.582236 -9.771287 -0.947659 -3.840809 0.000000 0.000000 0.000000 
-2600.251465 868.748718 1127.829956 14.942287 -3.350899 1.453356 -1.971513 5.546105 7.131020 -1.359921 -0.771423 -1.414779 -1.280105 0.965419 1.103174 -1.022586 -1.226151 2.490698 0.000000 0.000000 0.000000 1.311463 -11.547001 -0.435332 -4.717250 -5.996363 -11.871900 10.254594 -86.160914 25.684526 0.000000 0.000000 0.000000 -0.424701 -11.041502 1.311532 -0.765572 -7.833412 15.354268 -11.498272 -67.171743 -6.139642 0.000000 0.000000 0.000000 4.555257 -14.612269 -5.265824 4.223605 13.614682 3.330621 6.209892 1.316810 2.750711 0.000000 0.000000 0.000000 -9.085758 -9.847879 4.731371 -6.353176 42.355937 -10.595416 -9.883123 -1.677635 -3.801118 0.000000 0.000000 0.000000 
-2597.600586 867.249756 1129.171021 15.265579 -3.430194 1.476504 -1.898456 5.436369 6.907310 -1.299701 -0.752794 -1.378773 -1.222574 0.943435 1.070993 -1.015592 -1.176843 2.483100 0.000000 0.000000 0.000000 1.373054 -11.418797 -0.542496 -5.192706 -5.867318 -11.621625 9.833852 -86.162656 27.062726 0.000000 0.000000 0.000000 -0.489109 -11.330443 1.242385 -0.882440 -8.111709 15.764360 -11.658908 -66.451270 -5.833142 0.000000 0.000000 0.000000 4.479114 -14.170108 -5.149615 4.139708 13.258081 3.206070 6.037722 1.374087 2.688409 0.000000 0.000000 0.000000 -9.230368 -9.789689 4.718724 -6.516760 41.912154 -10.596922 -10.062406 -2.483022 -3.792096 0.000000 0.000000 0.000000 
-2595.181885 866.279480 1130.349976 15.676528 -3.531031 1.513388 -1.829579 5.325929 6.673714 -1.273578 -0.746129 -1.348189 -1.203046 0.937225 1.036464 -1.023463 -1.149794 2.508157 0.000000 0.000000 0.000000 1.417593 -11.285388 -0.632761 -5.804060 -5.760242 -11.476271 9.323282 -86.127055 28.720182 0.000000 0.000000 0.000000 -0.551992 -11.633437 1.092045 -1.006970 -8.423523 16.198796 -11.841778 -65.593980 -5.632483 0.000000 0.000000 0.000000 4.352960 -13.641107 -5.041841 4.053940 12.794292 2.994358 5.833032 1.461220 2.617296 0.000000 0.000000 0.000000 -9.489001 -9.557700 4.631664 -6.807350 40.776584 -10.648122 -10.414944 -3.177689 -3.884847 0.000000 0.000000 0.000000 
-2593.040039 865.765015 1131.365967 16.128168 -3.653134 1.548227 -1.758856 5.223319 6.439957 -1.268033 -0.747747 -1.322965 -1.207264 0.939659 1.002685 -1.042603 -1.142778 2.558540 0.000000 0.000000 0.000000 1.454362 -11.146353 -0.721223 -6.537042 -5.669580 -11.391796 8.729245 -86.025641 30.654872 0.000000 0.000000 0.000000 -0.610194 -11.936031 0.897135 -1.131556 -8.746726 16.655758 -12.033345 -64.656133 -5.538979 0.000000 0.000000 0.000000 4.195769 -13.069883 -4.943128 3.970058 12.285071 2.745381 5.620774 1.571056 2.546042 0.000000 0.000000 0.000000 -9.790887 -9.152011 4.486693 -7.158149 39.078001 -10.670300 -10.802778 -3.880617 -4.006621 0.000000 0.000000 0.000000 
-2591.311035 865.651917 1132.040039 16.567767 -3.781780 1.550147 -1.695444 5.134304 6.247534 -1.281121 -0.743656 -1.295627 -1.232563 0.940212 0.975087 -1.062349 -1.144135 2.609449 0.000000 0.000000 0.000000 1.485296 -11.018985 -0.809585 -7.263433 -5.598189 -11.296600 8.149819 -85.797274 32.610943 0.000000 0.000000 0.000000 -0.642393 -12.170272 0.716812 -1.252603 -9.015165 17.062034 -12.206382 -63.781242 -5.488287 0.000000 0.000000 0.000000 4.014401 -12.589229 -4.859588 3.882394 11.921188 2.551657 5.449189 1.646954 2.487789 0.000000 0.000000 0.000000 -10.023975 -8.605689 4.321015 -7.454488 37.029944 -10.523828 -10.998666 -4.456061 -4.074358 0.000000 0.000000 0.000000 
-2590.057373 865.994080 1132.266968 16.982404 -3.912750 1.494899 -1.641358 5.061566 6.146146 -1.318131 -0.725714 -1.265181 -1.285096 0.929869 0.957190 -1.072610 -1.158886 2.636198 0.000000 0.000000 0.000000 1.527323 -10.906250 -0.936125 -7.944380 -5.548048 -11.147193 7.616890 -85.386268 34.529653 0.000000 0.000000 0.000000 -0.633919 -12.303167 0.571816 -1.365254 -9.196009 17.405110 -12.342374 -63.024177 -5.472780 0.000000 0.000000 0.000000 3.797678 -12.243693 -4.788343 3.790582 11.766729 2.456016 5.338191 1.667328 2.449043 0.000000 0.000000 0.000000 -10.153839 -7.865886 4.161124 -7.676032 34.385929 -10.125063 -10.938117 -4.753368 -4.082673 0.000000 0.000000 0.000000 
-2589.216797 866.737488 1132.150024 17.369263 -4.054616 1.384082 -1.592438 5.016029 6.132089 -1.367130 -0.710366 -1.254587 -1.350594 0.915820 0.945019 -1.082813 -1.182415 2.661657 0.000000 0.000000 0.000000 1.565788 -10.801979 -1.066362 -8.605063 -5.512017 -10.986166 7.106936 -84.837357 36.446822 0.000000 0.000000 0.000000 -0.598902 -12.363547 0.447821 -1.474276 -9.317804 17.698913 -12.457184 -62.339524 -5.493516 0.000000 0.000000 0.000000 3.565093 -11.984155 -4.705372 3.696648 11.756882 2.414211 5.266279 1.653717 2.422880 0.000000 0.000000 0.000000 -10.189377 -6.942467 4.011090 -7.846897 31.327945 -9.542957 -10.725522 -4.804412 -4.061261 0.000000 0.000000 0.000000 
